<svg xmlns="http://www.w3.org/2000/svg" width="22.701" height="15" viewBox="0 0 22.701 15"><defs><style>.a,.c{fill:none;}.a{stroke:#0072c6;}.b{stroke:none;}</style></defs><g transform="translate(-95.299 -74)"><path class="a" d="M488.617,161.537a6.391,6.391,0,0,0,0-1.8l-1.823-.537-.009-.029,1.16-1.507a6.383,6.383,0,0,0-1.059-1.456l-1.791.637-.024-.018.053-1.9a6.316,6.316,0,0,0-1.712-.556l-1.075,1.569h-.03l-1.075-1.569a6.316,6.316,0,0,0-1.712.556l.053,1.9-.024.018-1.791-.637a6.38,6.38,0,0,0-1.059,1.456l1.159,1.506-.01.03-1.823.537a6.391,6.391,0,0,0,0,1.8l1.823.537.01.029-1.16,1.507a6.382,6.382,0,0,0,1.059,1.456l1.791-.637.024.018-.053,1.9a6.313,6.313,0,0,0,1.712.556l1.075-1.569h.03l1.075,1.569a6.313,6.313,0,0,0,1.712-.556l-.053-1.9.024-.018,1.791.637a6.383,6.383,0,0,0,1.059-1.456l-1.159-1.506.01-.03Zm-6.13,2.3a3.2,3.2,0,1,1,3.029-3.029A3.2,3.2,0,0,1,482.487,163.833Z" transform="translate(-380.161 -79.137)"/><g class="a" transform="translate(109 74)"><rect class="b" width="9" height="7" rx="2"/><rect class="c" x="0.5" y="0.5" width="8" height="6" rx="1.5"/></g><g class="a" transform="translate(109 82)"><rect class="b" width="9" height="7" rx="2"/><rect class="c" x="0.5" y="0.5" width="8" height="6" rx="1.5"/></g></g></svg>