<svg xmlns="http://www.w3.org/2000/svg" width="16" height="16" viewBox="0 0 16 16"><defs><style>.a,.b,.c,.d{fill:none;}.b,.c{stroke:#606060;}.b,.c,.d{stroke-linecap:round;stroke-linejoin:round;}.c{stroke-width:0.5px;}.e,.f{stroke:none;}.f{fill:#606060;}</style></defs><g transform="translate(6360 19299)"><rect class="a" width="16" height="16" transform="translate(-6360 -19299)"/><g transform="translate(-5860 -8796.5)"><g transform="translate(-500.196 -10503.576)"><g class="b" transform="translate(2.196 3.576)"><rect class="e" width="12" height="10" rx="2"/><rect class="a" x="0.5" y="0.5" width="11" height="9" rx="1.5"/></g><line class="b" x2="4" transform="translate(6.196 14.576)"/></g><g transform="translate(-496.144 -10499.145)"><g class="c" transform="translate(3.144 3.144)"><circle class="e" cx="1" cy="1" r="1"/><circle class="a" cx="1" cy="1" r="0.75"/></g><g class="d"><path class="e" d="M6.26,5a.472.472,0,0,0,.094.52l.017.017a.572.572,0,1,1-.809.809l-.017-.017a.476.476,0,0,0-.806.337v.049a.572.572,0,1,1-1.143,0V6.691a.495.495,0,0,0-.829-.337l-.017.017a.572.572,0,1,1-.809-.809l.017-.017a.476.476,0,0,0-.337-.806H1.572a.572.572,0,0,1,0-1.143H1.6a.495.495,0,0,0,.337-.829l-.017-.017a.572.572,0,1,1,.809-.809l.017.017a.472.472,0,0,0,.52.094h.023a.472.472,0,0,0,.286-.432V1.572a.572.572,0,1,1,1.143,0V1.6a.476.476,0,0,0,.806.337l.017-.017a.572.572,0,1,1,.809.809l-.017.017a.472.472,0,0,0-.094.52v.023a.472.472,0,0,0,.432.286h.049a.572.572,0,1,1,0,1.143H6.691A.472.472,0,0,0,6.26,5Z"/><path class="f" d="M 4.167340278625488 6.7889404296875 C 4.206890106201172 6.7889404296875 4.239060401916504 6.756770133972168 4.239060401916504 6.717220306396484 L 4.239060401916504 6.666630268096924 C 4.240608692169189 6.279465198516846 4.471316337585449 5.930718898773193 4.82694149017334 5.777829647064209 C 4.950192451477051 5.724058628082275 5.080806732177734 5.696800231933594 5.215250015258789 5.696800231933594 C 5.470820426940918 5.696800231933594 5.712170124053955 5.795200347900391 5.894830226898193 5.97389030456543 C 5.896140098571777 5.975170135498047 5.89745044708252 5.976459980010986 5.898740291595459 5.977760314941406 L 5.916069984436035 5.995090007781982 C 5.943019390106201 6.022039413452148 5.990303993225098 6.022406101226807 6.017960071563721 5.994729995727539 C 6.031530380249023 5.981170177459717 6.039000034332275 5.96314001083374 6.039000034332275 5.943960189819336 C 6.039000034332275 5.924790382385254 6.031530380249023 5.906760215759277 6.017880439758301 5.893130302429199 L 6.000720024108887 5.875980377197266 C 5.999380111694336 5.874639987945557 5.99806022644043 5.873300075531006 5.996740341186523 5.871950149536133 C 5.718352317810059 5.587353706359863 5.641658306121826 5.168552398681641 5.800750255584717 4.803953647613525 C 5.95366907119751 4.448402404785156 6.302384376525879 4.217738628387451 6.691490173339844 4.216190338134766 L 6.717220306396484 4.216190338134766 C 6.756770133972168 4.216190338134766 6.7889404296875 4.184020042419434 6.7889404296875 4.14447021484375 C 6.7889404296875 4.104920387268066 6.756770133972168 4.072750091552734 6.717220306396484 4.072750091552734 L 6.666630268096924 4.072750091552734 C 6.279110431671143 4.071200370788574 5.930070400238037 3.840050220489502 5.777400016784668 3.483870267868042 C 5.762536525726318 3.449177503585815 5.751682281494141 3.413000822067261 5.744985580444336 3.376052379608154 C 5.631937503814697 3.03310227394104 5.717164516448975 2.656542539596558 5.97389030456543 2.394110202789307 C 5.975170135498047 2.392800331115723 5.976459980010986 2.39149022102356 5.977760314941406 2.390200138092041 L 5.995090007781982 2.372870206832886 C 6.008660316467285 2.359300136566162 6.016139984130859 2.341280221939087 6.016139984130859 2.322110176086426 C 6.016139984130859 2.303210258483887 6.008470058441162 2.284710168838501 5.994729995727539 2.2709801197052 C 5.967617034912109 2.243847370147705 5.920506954193115 2.243653059005737 5.893020153045654 2.271160125732422 L 5.875870227813721 2.288310289382935 C 5.874580383300781 2.289600133895874 5.873280048370361 2.290890216827393 5.8719801902771 2.292160272598267 C 5.689330101013184 2.470860242843628 5.447970390319824 2.569270133972168 5.192380428314209 2.569270133972168 C 5.057825088500977 2.569270133972168 4.927097797393799 2.541968584060669 4.803733348846436 2.488095283508301 C 4.448329925537109 2.335118532180786 4.217738151550293 1.98646092414856 4.216190338134766 1.597450256347656 L 4.216190338134766 1.571720242500305 C 4.216190338134766 1.532170176506042 4.184020042419434 1.500000238418579 4.14447021484375 1.500000238418579 C 4.104920387268066 1.500000238418579 4.072750091552734 1.532170176506042 4.072750091552734 1.571720242500305 L 4.072750091552734 1.622310161590576 C 4.071200370788574 2.009830236434937 3.840050220489502 2.358870267868042 3.483870267868042 2.511540174484253 C 3.449109077453613 2.526432991027832 3.412864923477173 2.537299394607544 3.375840663909912 2.54399299621582 C 3.278467655181885 2.575979471206665 3.177218198776245 2.592140197753906 3.073690176010132 2.592140197753906 C 2.818140268325806 2.592140197753906 2.576800107955933 2.493740320205688 2.394130229949951 2.315070152282715 C 2.392810106277466 2.313780307769775 2.391500234603882 2.312490224838257 2.390200138092041 2.311180114746094 L 2.372870206832886 2.293850183486938 C 2.345921516418457 2.26690149307251 2.298636436462402 2.266533851623535 2.2709801197052 2.294210195541382 C 2.257410287857056 2.307770252227783 2.249940156936646 2.325800180435181 2.249940156936646 2.344980239868164 C 2.249940156936646 2.364150285720825 2.257410287857056 2.382180213928223 2.271160125732422 2.395920276641846 L 2.288310289382935 2.413070201873779 C 2.289610147476196 2.414360284805298 2.290900230407715 2.415670156478882 2.292180299758911 2.416980266571045 C 2.567850112915039 2.698777914047241 2.64577317237854 3.112173557281494 2.492804050445557 3.474242925643921 C 2.350560665130615 3.842949151992798 2.005420923233032 4.0862135887146 1.609140157699585 4.095480442047119 C 1.605250239372253 4.095570087432861 1.60135018825531 4.095620155334473 1.597450256347656 4.095620155334473 L 1.571720242500305 4.095620155334473 C 1.532170176506042 4.095620155334473 1.500000238418579 4.127790451049805 1.500000238418579 4.167340278625488 C 1.500000238418579 4.206890106201172 1.532170176506042 4.239060401916504 1.571720242500305 4.239060401916504 L 1.622310161590576 4.239060401916504 C 2.009428024291992 4.240608692169189 2.358141660690308 4.471272468566895 2.511059999465942 4.826823711395264 C 2.670151948928833 5.191422462463379 2.593448400497437 5.610223770141602 2.315060138702393 5.894820213317871 C 2.313780307769775 5.896130084991455 2.312480211257935 5.897440433502197 2.311180114746094 5.898740291595459 L 2.293850183486938 5.916069984436035 C 2.280280113220215 5.929640293121338 2.272800207138062 5.947660446166992 2.272800207138062 5.966830253601074 C 2.272800207138062 5.985730171203613 2.280470132827759 6.00423002243042 2.294210195541382 6.017960071563721 C 2.321323156356812 6.045093536376953 2.368542909622192 6.045186996459961 2.395810127258301 6.017880439758301 L 2.412960290908813 6.000720024108887 C 2.414300203323364 5.999390125274658 2.415630102157593 5.99806022644043 2.416980266571045 5.996750354766846 C 2.599630117416382 5.818070411682129 2.840980291366577 5.719670295715332 3.096550226211548 5.719670295715332 C 3.227143287658691 5.719670295715332 3.354134798049927 5.745388984680176 3.474277496337891 5.796149730682373 C 3.842983722686768 5.938393115997314 4.0862135887146 6.283519744873047 4.095480442047119 6.679800033569336 C 4.095570087432861 6.683690071105957 4.095620155334473 6.6875901222229 4.095620155334473 6.691490173339844 L 4.095620155334473 6.717220306396484 C 4.095620155334473 6.756770133972168 4.127790451049805 6.7889404296875 4.167340278625488 6.7889404296875 M 4.167340278625488 7.2889404296875 C 3.851590156555176 7.2889404296875 3.595620155334473 7.032970428466797 3.595620155334473 6.717220306396484 L 3.595620155334473 6.691490173339844 C 3.591090202331543 6.497870445251465 3.468660116195679 6.326690196990967 3.286890268325806 6.25984001159668 C 3.110489368438721 6.181990623474121 2.904459953308105 6.219339370727539 2.76662015914917 6.354170322418213 L 2.749470233917236 6.371330261230469 C 2.642230272293091 6.47868013381958 2.496720314025879 6.539000034332275 2.344980239868164 6.539000034332275 C 2.193240165710449 6.539000034332275 2.047720193862915 6.47868013381958 1.94048023223877 6.371330261230469 C 1.833130240440369 6.264090061187744 1.772800207138062 6.118570327758789 1.772800207138062 5.966830253601074 C 1.772800207138062 5.815090179443359 1.833130240440369 5.669579982757568 1.94048023223877 5.562340259552002 L 1.957630157470703 5.545190334320068 C 2.092460155487061 5.407350063323975 2.129820108413696 5.201320171356201 2.051970243453979 5.024919986724854 C 1.977910161018372 4.85213041305542 1.808310270309448 4.739809989929199 1.620320200920105 4.739060401916504 L 1.571720242500305 4.739060401916504 C 1.255970239639282 4.739060401916504 1.000000238418579 4.483090400695801 1.000000238418579 4.167340278625488 C 1.000000238418579 3.851590156555176 1.255970239639282 3.595620155334473 1.571720242500305 3.595620155334473 L 1.597450256347656 3.595620155334473 C 1.791070222854614 3.591090202331543 1.962250232696533 3.468660116195679 2.029100179672241 3.286890268325806 C 2.106950283050537 3.110490322113037 2.069600105285645 2.904460191726685 1.934760212898254 2.76662015914917 L 1.917610168457031 2.749470233917236 C 1.81026017665863 2.642230272293091 1.749940156936646 2.496720314025879 1.749940156936646 2.344980239868164 C 1.749940156936646 2.193240165710449 1.81026017665863 2.047720193862915 1.917610168457031 1.94048023223877 C 2.024850130081177 1.833130240440369 2.170370101928711 1.772800207138062 2.322110176086426 1.772800207138062 C 2.473850250244141 1.772800207138062 2.619360208511353 1.833130240440369 2.726600170135498 1.94048023223877 L 2.743750333786011 1.957630157470703 C 2.881590604782104 2.092460632324219 3.087620496749878 2.129819869995117 3.264020204544067 2.051970243453979 L 3.286890268325806 2.051970243453979 C 3.459680318832397 1.977910161018372 3.57200026512146 1.808310270309448 3.572750329971313 1.620320200920105 L 3.572750329971313 1.571720242500305 C 3.572750329971313 1.255970239639282 3.828720331192017 1.000000238418579 4.14447021484375 1.000000238418579 C 4.460220336914062 1.000000238418579 4.716190338134766 1.255970239639282 4.716190338134766 1.571720242500305 L 4.716190338134766 1.597450256347656 C 4.716940402984619 1.78544020652771 4.829260349273682 1.955040216445923 5.002050399780273 2.029100179672241 C 5.178450107574463 2.106950283050537 5.384479999542236 2.069600105285645 5.52232027053833 1.934760212898254 L 5.539470195770264 1.917610168457031 C 5.646710395812988 1.81026017665863 5.792220115661621 1.749940156936646 5.943960189819336 1.749940156936646 C 6.095700263977051 1.749940156936646 6.241219997406006 1.81026017665863 6.34846019744873 1.917610168457031 C 6.455810070037842 2.024850130081177 6.516139984130859 2.170370101928711 6.516139984130859 2.322110176086426 C 6.516139984130859 2.473850250244141 6.455810070037842 2.619360208511353 6.34846019744873 2.726600170135498 L 6.331310272216797 2.743750333786011 C 6.196470260620117 2.881590127944946 6.159120082855225 3.087620258331299 6.2369704246521 3.264020204544067 L 6.2369704246521 3.286890268325806 C 6.311030387878418 3.459680318832397 6.480630397796631 3.57200026512146 6.668620109558105 3.572750329971313 L 6.717220306396484 3.572750329971313 C 7.032970428466797 3.572750329971313 7.2889404296875 3.828720331192017 7.2889404296875 4.14447021484375 C 7.2889404296875 4.460220336914062 7.032970428466797 4.716190338134766 6.717220306396484 4.716190338134766 L 6.691490173339844 4.716190338134766 C 6.503499984741211 4.716940402984619 6.333900451660156 4.829260349273682 6.25984001159668 5.002050399780273 C 6.181990146636963 5.178450107574463 6.219340324401855 5.384479999542236 6.354170322418213 5.52232027053833 L 6.371330261230469 5.539470195770264 C 6.47868013381958 5.646710395812988 6.539000034332275 5.792220115661621 6.539000034332275 5.943960189819336 C 6.539000034332275 6.095700263977051 6.47868013381958 6.241219997406006 6.371330261230469 6.34846019744873 C 6.264090061187744 6.455810070037842 6.118570327758789 6.516139984130859 5.966830253601074 6.516139984130859 C 5.815090179443359 6.516139984130859 5.669579982757568 6.455810070037842 5.562340259552002 6.34846019744873 L 5.545190334320068 6.331310272216797 C 5.407350540161133 6.196469783782959 5.201320171356201 6.159120082855225 5.024919986724854 6.2369704246521 C 4.85213041305542 6.311030387878418 4.739809989929199 6.480630397796631 4.739060401916504 6.668620109558105 L 4.739060401916504 6.717220306396484 C 4.739060401916504 7.032970428466797 4.483090400695801 7.2889404296875 4.167340278625488 7.2889404296875 Z"/></g></g></g></g></svg>