<svg id="Audit" xmlns="http://www.w3.org/2000/svg" width="10.5" height="12" viewBox="0 0 10.5 12">
  <g id="file" transform="translate(0)">
    <g id="Path_50725" data-name="Path 50725" transform="translate(-4 -2)" fill="none" stroke-linecap="round" stroke-linejoin="round">
      <path d="M9.906,2H5.313A1.26,1.26,0,0,0,4,3.2v9.6A1.26,1.26,0,0,0,5.313,14h7.875A1.26,1.26,0,0,0,14.5,12.8V6.2Z" stroke="none"/>
      <path d="M 5.3125 3 C 5.136509895324707 3 5 3.107509613037109 5 3.199999809265137 L 5 12.80000019073486 C 5 12.89249038696289 5.136509895324707 13 5.3125 13 L 13.1875 13 C 13.36349010467529 13 13.5 12.89249038696289 13.5 12.80000019073486 L 13.5 6.640676498413086 L 9.518010139465332 3 L 5.3125 3 M 5.3125 2 L 9.90625 2 L 14.5 6.199999809265137 L 14.5 12.80000019073486 C 14.5 13.46273994445801 13.9123706817627 14 13.1875 14 L 5.3125 14 C 4.587630271911621 14 4 13.46273994445801 4 12.80000019073486 L 4 3.199999809265137 C 4 2.537260055541992 4.587630271911621 2 5.3125 2 Z" stroke="none" fill="#606060"/>
    </g>
  </g>
  <g id="clock" transform="translate(1.954 3.279)">
    <g id="Ellipse_2088" data-name="Ellipse 2088" fill="none" stroke="#606060" stroke-linecap="round" stroke-linejoin="round" stroke-width="1">
      <circle cx="2.951" cy="2.951" r="2.951" stroke="none"/>
      <circle cx="2.951" cy="2.951" r="2.451" fill="none"/>
    </g>
    <path id="Path_50727" data-name="Path 50727" d="M12,6V7.155l1.047.385" transform="translate(-9.049 -4.066)" fill="none" stroke="#606060" stroke-linecap="round" stroke-linejoin="round" stroke-width="1"/>
  </g>
</svg>
