<svg xmlns="http://www.w3.org/2000/svg" width="16" height="16" viewBox="0 0 16 16"><defs><style>.a,.b{fill:none;}.b{stroke-linecap:round;stroke-linejoin:round;}.c,.d{stroke:none;}.d{fill:#606060;}</style></defs><g transform="translate(6360 19299)"><rect class="a" width="16" height="16" transform="translate(-6360 -19299)"/><g transform="translate(12360 -17500.93)"><g class="b" transform="translate(-18718 -1795.071)"><path class="c" d="M1,10A1,1,0,0,1,0,9V3a1,1,0,0,1,.134-.5H0V0H6.143l.776,2H11a1,1,0,0,1,1,1V9a1,1,0,0,1-1,1Z"/><path class="d" d="M 10.75059986114502 8.749899864196777 L 10.75059986114502 3.249799966812134 L 6.919049739837646 3.249799966812134 C 6.403130054473877 3.249799966812134 5.940209865570068 2.932829856872559 5.753639698028564 2.451819896697998 L 5.287497520446777 1.24999988079071 L 1.24999988079071 1.24999988079071 L 1.24999988079071 1.937606573104858 C 1.428238391876221 2.291234731674194 1.428236842155457 2.708873987197876 1.24999988079071 3.062490940093994 L 1.24999988079071 8.749899864196777 L 10.75059986114502 8.749899864196777 M 11.00069999694824 9.999899864196777 L 0.9998999238014221 9.999899864196777 C 0.4472999274730682 9.999899864196777 -6.942749308791463e-08 9.552599906921387 -6.942749308791463e-08 9 L -6.942749308791463e-08 2.999699831008911 C -6.942749308791463e-08 2.817759990692139 0.04864992946386337 2.647109985351562 0.1336799263954163 2.500049829483032 L -6.942749308791463e-08 2.500200033187866 L -6.942749308791463e-08 -6.790160966829717e-08 L 6.143399715423584 -6.790160966829717e-08 L 6.919049739837646 1.999799966812134 L 11.00069999694824 1.999799966812134 C 11.55329990386963 1.999799966812134 12.00059986114502 2.447999954223633 12.00059986114502 2.999699831008911 L 12.00059986114502 9 C 12.00059986114502 9.552599906921387 11.55329990386963 9.999899864196777 11.00069999694824 9.999899864196777 Z"/></g></g></g></svg>