<svg xmlns="http://www.w3.org/2000/svg" width="12.5" height="12.5" viewBox="0 0 12.5 12.5"><defs><style>.a,.b{fill:none;stroke-linejoin:round;}.a{stroke:#606060;}.c,.d{stroke:none;}.d{fill:#606060;}</style></defs><g transform="translate(-1.5 -1.879)"><path class="a" d="M7.256,4H3.168A1.168,1.168,0,0,0,2,5.168v8.175a1.168,1.168,0,0,0,1.168,1.168h8.175a1.168,1.168,0,0,0,1.168-1.168V9.256" transform="translate(0 -0.633)"/><g class="b" transform="translate(-5.258 0)"><path class="c" d="M16.371,2.369a1.7,1.7,0,0,1,2.392,0,1.66,1.66,0,0,1,0,2.366l-7.574,7.492L8,13.016l.8-3.155Z"/><path class="d" d="M 17.56690979003906 2.878684043884277 C 17.3802375793457 2.878684043884277 17.20529937744141 2.950043678283691 17.07431793212891 3.07961368560791 L 9.698518753051758 10.37601470947266 L 9.377889633178711 11.64473533630371 L 10.68151092529297 11.32233810424805 L 18.05950927734375 4.023754119873047 C 18.18758773803711 3.897053718566895 18.25811767578125 3.729403495788574 18.25811767578125 3.55168342590332 C 18.25811767578125 3.373963356018066 18.18758773803711 3.206314086914063 18.05949783325195 3.07961368560791 C 17.92852783203125 2.950043678283691 17.75358963012695 2.878684043884277 17.56690979003906 2.878684043884277 M 17.56691360473633 1.878681182861328 C 17.99973106384277 1.878681182861328 18.43254852294922 2.042018890380859 18.76277923583984 2.368693351745605 C 19.42323875427246 3.02204418182373 19.42323875427246 4.081323623657227 18.76277923583984 4.734673500061035 L 11.18896865844727 12.22696399688721 L 7.999998092651367 13.01562404632568 L 8.797239303588867 9.860973358154297 L 16.37104797363281 2.368693351745605 C 16.70127868652344 2.042018890380859 17.13409614562988 1.878681182861328 17.56691360473633 1.878681182861328 Z"/></g></g></svg>