<svg xmlns="http://www.w3.org/2000/svg" width="205.652" height="152.336" viewBox="0 0 205.652 152.336"><defs><style>.a{opacity:0.181;}.b{fill:#40a7f3;}.c{fill:#0072c6;}.d{fill:#fff;font-size:7px;font-family:OpenSans-Semibold, Open Sans;font-weight:600;}.e{fill:#b28b67;}.e,.f,.h,.i,.j,.k,.l,.m{fill-rule:evenodd;}.f{fill:#191847;}.g{fill:#c5cfd6;}.h{fill:#1f28cf;}.i{fill:#2b44ff;}.j{fill:#e4e4e4;}.k{fill:#e55c00;}.l{fill:#dde3e9;}.m{fill:#f60;}</style></defs><g transform="translate(-882.78 -251.472)"><g class="a" transform="translate(882.78 256.792)"><path class="b" d="M73.848,35.139,48.166,6.8,18.941,35.139H38.424V51.08c0,15.055-7.97,37.2-35.424,37.2,42.509,0,53.136-12.4,53.136-38.081V35.139Z" transform="translate(23.568 53.421)"/><path class="c" d="M0,0V115.128H53.136v-8.856H8.856v-79.7H132.84v79.7H88.56v8.856H141.7V0ZM17.712,17.712H8.856V8.856h8.856Zm97.416,0H26.568V8.856h88.56Z" transform="translate(0 0)"/></g><g transform="translate(896.564 291.504)"><rect class="c" width="94" height="15" transform="translate(0.436 0.496)"/><text class="d" transform="translate(6.436 10.495)"><tspan x="0" y="0">https://www.google.com</tspan></text></g><g transform="translate(960.52 251.472)"><g transform="translate(127.912 152.336) rotate(180)"><g transform="translate(0 106.387)"><g transform="translate(50.917)"><path class="e" d="M3.42,15.941A11.214,11.214,0,0,0,.437,24c.622,8.859,12.953,6.91,15.352,2.439S17.9,10.625,14.8,9.826c-1.236-.319-3.87.462-6.551,2.078L9.935,0H0Z"/></g><path class="f" d="M61.044,16.259c-1.309.215-4.835.362-5.485.362-.415,0-.866-.095-1.112.287-.2.312-.128.841-.188,1.2-.07.421-.169.837-.269,1.252a12.725,12.725,0,0,1-1.321,3.357,10.317,10.317,0,0,1-4.891,4.428,15.7,15.7,0,0,1-7.425,1.021,32.6,32.6,0,0,1-7.593-1.923,15.913,15.913,0,0,0-7.416-.714c-2.527.388-4.436,1.757-6.567,3.057a12.233,12.233,0,0,1-7.254,2,13.97,13.97,0,0,1-6.617-2.509A10.8,10.8,0,0,1,.638,23.238a6.628,6.628,0,0,1,.6-6.747c2.225-2.9,6.355-3.649,9.792-3.574a18.708,18.708,0,0,1,5.816,1.066,56.241,56.241,0,0,1,7.006,3.583,18.232,18.232,0,0,0,3.425,1.371,3.82,3.82,0,0,0,3.339-.222,15.768,15.768,0,0,1,3.364-1.926,10.848,10.848,0,0,1,3.794-.681,37.406,37.406,0,0,1,7.443,1.329,15.277,15.277,0,0,0,6.159.443c.848-.172,2.087-.527,2.393-1.408-5.156-.934-7.18-7.31-5.727-11.991C48.83,1.954,53.545-1,55.379.329c1.162.841.456,1.946,0,2.675-.874,1.4-1.173,3.19.444,4.162,1.395.839,2.862-1.153,2.889-1.151a17.925,17.925,0,0,1,5.979,4.638c2.252-.133,2.593,1.351,2.056,2.565S62.853,15.962,61.044,16.259Z" transform="translate(0 15.332)"/></g><g transform="translate(14.488)"><ellipse class="g" cx="31.875" cy="30.219" rx="31.875" ry="30.219"/><path class="e" d="M63.075,0A231.75,231.75,0,0,0,52.4,27.354c-2.636,9.234-4.642,17.36-5.149,20.395-1.209,7.236,9.3,7.658,10.687,4.061,2.1-5.443,5.772-23.327,10.181-50.339ZM1.552,36.841c4.866,1.924,21.908,7.943,30.127,9.646,2.362.489,4.651.944,6.8,1.355,6.4,1.221,9.712-10.32,3.55-11.206-15.344-2.208-37.1-4.489-38.959-4.745C.466,31.532-1.506,35.632,1.552,36.841Z" transform="translate(29.448 4.694)"/><path class="h" d="M26.322,41.075,0,54.474v2.917H3.13q38.2-9.734,39.039-12.476.009-.03.017-.059l.038-.051C47.27,37.865,50.293,3.98,51.285,1.443L41.614,0c-3.7,13.718-15.535,23.274-15.22,39.7A5.383,5.383,0,0,0,26.322,41.075Z" transform="translate(45.535 14.637)"/><path class="i" d="M20.815,10.461c-2.408.482-4.626.912-6.524,1.245C2.032,13.857-1.542,20.419.571,34.736H23.157c3.69-1.06,22.864-9.1,32.812-13.378,6.584-2.831,4.509-13.035.78-15.69a.364.364,0,0,0-.207-.323C36.485-2.968,20.617,1.394,15.316,0L12.865,7.734Z" transform="translate(26.907 37.292)"/><g transform="matrix(0.438, -0.899, 0.899, 0.438, 26.929, 40.74)"><path class="j" d="M.695,6.043A8.888,8.888,0,0,1,0,3.268,20.771,20.771,0,0,1,.373,0H23.721q.91,3.009-1.051,3.249t-3.258.433L8.561,8.52a.414.414,0,0,1-.547-.21l0-.011-.7-1.692a7.445,7.445,0,0,0-2.95-.847,6.681,6.681,0,0,0-2.547.745h0A.828.828,0,0,1,.717,6.1Q.705,6.071.695,6.043Z" transform="translate(0 0)"/></g><g transform="translate(89.415 0.828)"><path class="j" d="M.695,6.043A8.888,8.888,0,0,1,0,3.268,20.771,20.771,0,0,1,.373,0H23.721q.91,3.009-1.051,3.249t-3.258.433L8.561,8.52a.414.414,0,0,1-.547-.21l0-.011-.7-1.692a7.445,7.445,0,0,0-2.95-.847,6.681,6.681,0,0,0-2.547.745h0A.828.828,0,0,1,.717,6.1Q.705,6.071.695,6.043Z"/></g></g><g transform="translate(4.554 46.363)"><path class="e" d="M81.135,37l15,6.587a35.543,35.543,0,0,0,7.612,5.97c.732.233,1.982.3.648-1.645s-2.649-4.057-2.116-4.74,2.077.071,2.687-1.039q.61-1.11-7.807-2.656L85.925,30.865ZM20.494,35.186,28.977,33.5Q16.181,9.656,15.252,8.225c-1.393-2.146-.093-6.08.387-8.151C12.627-.627,13.815,3.906,10,2.959,6.526,2.1,3.576-.121.333,2.868c-.4.368-.691,1.517.669,2.106,3.387,1.468,8.392,4.217,9.2,5.284Q11.865,12.442,20.494,35.186Z" transform="translate(0 0)"/><path class="k" d="M0,40.9l3.512.924C11.938,34.968,16.692,17.144,22.077,15.2c5.092-1.837,11.837.962,19.824,4.643l3.019-5.421C38.137,5.662,22.775-2.583,15.963.761,5.072,6.106.731,28.222,0,40.9Z" transform="translate(48.467 26.18) rotate(-5)"/><path class="l" d="M0,0H31.672c1.447,0,1.175,2.09.965,3.144C30.223,15.315,20.8,28.434,20.8,45.758l-9.136,1.433C4.105,35.038,1.492,20.075,0,0Z" transform="translate(36.428 21.94)"/><path class="m" d="M22.92,25.155Q13.235,7.685,6.639,0L0,1.3Q6.415,41.082,37.152,60.024h3.617q12.3-41.936,6.783-55.884H19.042A104.081,104.081,0,0,0,22.92,25.155Z" transform="translate(10.349 9.107)"/></g></g></g></g></svg>