<svg xmlns="http://www.w3.org/2000/svg" width="14.269" height="7.489" viewBox="0 0 14.269 7.489"><defs><style>.a{fill:#fff;}</style></defs><path d="M10.778,7.489a3.225,3.225,0,0,0,2.5-1.094,3.807,3.807,0,0,0,.988-2.644,3.772,3.772,0,0,0-.958-2.668A3.287,3.287,0,0,0,10.778.047Q8.59.047,7.123,2.591,5.679,0,3.538,0A3.334,3.334,0,0,0,.994,1.059,3.714,3.714,0,0,0,0,3.7a3.716,3.716,0,0,0,.994,2.7A3.392,3.392,0,0,0,3.538,7.43a3.213,3.213,0,0,0,1.946-.668A6.1,6.1,0,0,0,7.1,4.863a5.858,5.858,0,0,0,1.674,2A3.443,3.443,0,0,0,10.778,7.489Z"/><path class="a" d="M2.106,4.508A1.976,1.976,0,0,1,.574,3.881,2.291,2.291,0,0,1,0,2.272,2.294,2.294,0,0,1,.592.621,1.972,1.972,0,0,1,2.082,0a2.236,2.236,0,0,1,1.5.55,5.573,5.573,0,0,1,1.236,1.7A5.875,5.875,0,0,1,3.532,3.969,2.173,2.173,0,0,1,2.106,4.508Z" transform="translate(1.526 1.455)"/><path class="a" d="M2.745,4.508a2.229,2.229,0,0,1-1.491-.556A5.741,5.741,0,0,1,0,2.248,6.194,6.194,0,0,1,1.3.544,2.159,2.159,0,0,1,2.721,0,2,2,0,0,1,4.23.621a2.248,2.248,0,0,1,.6,1.627,2.287,2.287,0,0,1-.592,1.627A1.954,1.954,0,0,1,2.745,4.508Z" transform="translate(7.915 1.503)"/></svg>