<svg xmlns="http://www.w3.org/2000/svg" width="12" height="12" viewBox="0 0 12 12"><defs><style>.a{fill:#707070;}</style></defs><path class="a" d="M6,0a6,6,0,1,0,6,6A6.007,6.007,0,0,0,6,0ZM6,10.909A4.909,4.909,0,1,1,10.909,6,4.915,4.915,0,0,1,6,10.909Z"/><path class="a" d="M145.729,70a.727.727,0,1,0,.727.728A.728.728,0,0,0,145.729,70Z" transform="translate(-139.729 -67.455)"/><path class="a" d="M150.545,140a.545.545,0,0,0-.545.545v3.273a.545.545,0,1,0,1.091,0v-3.273A.545.545,0,0,0,150.545,140Z" transform="translate(-144.545 -134.909)"/></svg>