<svg xmlns="http://www.w3.org/2000/svg" width="17.642" height="17.492" viewBox="0 0 17.642 17.492"><defs><style>.a{fill:none;stroke:#3d3d3d;}</style></defs><path class="a" d="M492.518,163.746a8.359,8.359,0,0,0,0-2.355l-2.385-.7-.012-.038,1.517-1.971a8.345,8.345,0,0,0-1.386-1.9l-2.343.834-.032-.023.069-2.488a8.262,8.262,0,0,0-2.24-.727l-1.406,2.052h-.039l-1.406-2.052a8.263,8.263,0,0,0-2.24.727l.069,2.488-.032.023-2.343-.834a8.344,8.344,0,0,0-1.386,1.9l1.517,1.971-.013.039-2.385.7a8.359,8.359,0,0,0,0,2.355l2.385.7.012.038-1.517,1.971a8.346,8.346,0,0,0,1.386,1.9l2.343-.833.032.023-.069,2.488a8.26,8.26,0,0,0,2.24.727l1.406-2.052h.039l1.406,2.052a8.259,8.259,0,0,0,2.24-.727l-.069-2.488.032-.023,2.343.833a8.346,8.346,0,0,0,1.386-1.9l-1.517-1.971.013-.039Zm-8.02,3a4.186,4.186,0,1,1,3.962-3.962A4.186,4.186,0,0,1,484.5,166.749Z" transform="translate(-475.46 -153.823)"/></svg>