<svg xmlns="http://www.w3.org/2000/svg" width="9.992" height="12" viewBox="0 0 9.992 12"><defs><style>.a{fill:#707070;}</style></defs><path class="a" d="M52.464,4.769a.361.361,0,0,0-.361.361v6.149H43.554V.721h5.732V2.848a.361.361,0,0,0,.361.361H52.4a.361.361,0,0,0,.246-.625L49.983.1,49.974.09,49.961.079l-.014-.01-.014-.01L49.92.05,49.9.041,49.89.035,49.872.026l-.013,0L49.84.015l-.014,0-.019,0-.018,0-.016,0-.035,0H43.194a.361.361,0,0,0-.361.361V11.639a.361.361,0,0,0,.361.361h9.271a.361.361,0,0,0,.361-.361V5.13A.361.361,0,0,0,52.464,4.769ZM50.008,2.488V1.107l1.481,1.381Z" transform="translate(-42.833)"/><path class="a" d="M144.23,162.225a2.67,2.67,0,1,1,1.888-4.557h0a2.669,2.669,0,0,1-1.888,4.557Zm0-4.617a1.948,1.948,0,1,0,1.378.57A1.943,1.943,0,0,0,144.23,157.608Z" transform="translate(-139.247 -153.21)"/><path class="a" d="M311.5,327.193a.359.359,0,0,1-.255-.106l-1.428-1.428a.361.361,0,0,1,.51-.51l1.428,1.428a.361.361,0,0,1-.255.616Z" transform="translate(-303.46 -317.425)"/></svg>