<svg xmlns="http://www.w3.org/2000/svg" width="14" height="14" viewBox="0 0 14 14">
  <g id="Manage" transform="translate(-1 -1)">
    <g id="Ellipse_2050" data-name="Ellipse 2050" transform="translate(5 5)" fill="none" stroke="#606060" stroke-linecap="round" stroke-linejoin="round" stroke-width="1">
      <circle cx="3" cy="3" r="3" stroke="none"/>
      <circle cx="3" cy="3" r="2.5" fill="none"/>
    </g>
    <g id="Path_49965" data-name="Path 49965" fill="none" stroke-linecap="round" stroke-linejoin="round">
      <path d="M12.709,9.909a1.05,1.05,0,0,0,.21,1.158l.038.038a1.273,1.273,0,1,1-1.8,1.8l-.038-.038a1.059,1.059,0,0,0-1.795.751v.108a1.273,1.273,0,1,1-2.545,0V13.67a1.05,1.05,0,0,0-.687-.961,1.05,1.05,0,0,0-1.158.21l-.038.038a1.273,1.273,0,1,1-1.8-1.8l.038-.038a1.059,1.059,0,0,0-.751-1.795H2.273a1.273,1.273,0,0,1,0-2.545H2.33a1.05,1.05,0,0,0,.961-.687,1.05,1.05,0,0,0-.21-1.158l-.038-.038a1.273,1.273,0,1,1,1.8-1.8l.038.038a1.05,1.05,0,0,0,1.158.21h.051a1.05,1.05,0,0,0,.636-.961V2.273a1.273,1.273,0,0,1,2.545,0V2.33a1.059,1.059,0,0,0,1.795.751l.038-.038a1.273,1.273,0,1,1,1.8,1.8l-.038.038a1.05,1.05,0,0,0-.21,1.158v.051a1.05,1.05,0,0,0,.961.636h.108a1.273,1.273,0,1,1,0,2.545H13.67A1.05,1.05,0,0,0,12.709,9.909Z" stroke="none"/>
      <path d="M 8.050909996032715 14 C 8.201290130615234 14 8.323639869689941 13.87765026092529 8.323639869689941 13.72727012634277 L 8.323650360107422 13.61509990692139 C 8.326902389526367 12.79950618743896 8.812173843383789 12.06472301483154 9.56053352355957 11.74142265319824 C 9.821715354919434 11.62685298919678 10.0986442565918 11.56875991821289 10.38370990753174 11.56875991821289 C 10.92292022705078 11.56875991821289 11.43210983276367 11.77637004852295 11.81746006011963 12.15334033966064 C 11.82009029388428 12.15590000152588 11.8226900100708 12.15847969055176 11.82528972625732 12.16106986999512 L 11.86384963989258 12.19964027404785 C 11.91539001464844 12.25123023986816 11.98392009735107 12.27964019775391 12.05681991577148 12.27964019775391 C 12.12971973419189 12.27964019775391 12.19824028015137 12.25123023986816 12.25055980682373 12.19884967803955 C 12.30214023590088 12.14733982086182 12.33053970336914 12.07882022857666 12.33053970336914 12.00590991973877 C 12.33053970336914 11.93299961090088 12.3021297454834 11.86446952819824 12.25016021728516 11.81256008148193 L 12.21197986602783 11.77437973022461 C 12.20938968658447 11.77178001403809 12.20680046081543 11.76916980743408 12.20423030853271 11.76653957366943 C 11.61609935760498 11.16529750823975 11.45461940765381 10.28017616271973 11.79207515716553 9.510218620300293 C 12.11525344848633 8.761548042297363 12.8502254486084 8.275992393493652 13.67000007629395 8.272729873657227 L 13.72727012634277 8.272729873657227 C 13.87765026092529 8.272729873657227 14 8.15038013458252 14 8 C 14 7.84961986541748 13.87765026092529 7.727270126342773 13.72727012634277 7.727270126342773 L 13.61509990692139 7.727260112762451 C 12.79751014709473 7.723999977111816 12.06110954284668 7.236320018768311 11.73904037475586 6.484839916229248 C 11.70827484130859 6.413057327270508 11.68610191345215 6.33809232711792 11.67284297943115 6.261523723602295 C 11.43068695068359 5.53602409362793 11.60986804962158 4.738117694854736 12.1533203125 4.182549953460693 C 12.15589046478271 4.179920196533203 12.15847969055176 4.177309989929199 12.16106986999512 4.174709796905518 L 12.19964027404785 4.136149883270264 C 12.25123023986816 4.084609985351563 12.27964019775391 4.016079902648926 12.27964019775391 3.943180084228516 C 12.27964019775391 3.870280027389526 12.25123023986816 3.801759958267212 12.19884967803955 3.74943995475769 C 12.14733028411865 3.6978600025177 12.07880973815918 3.669450044631958 12.00590991973877 3.669450044631958 C 11.93301010131836 3.669450044631958 11.86448001861572 3.6978600025177 11.81256008148193 3.749840021133423 L 11.77437973022461 3.788019895553589 C 11.77178001403809 3.790610074996948 11.76918029785156 3.793190002441406 11.76655960083008 3.79574990272522 C 11.38119983673096 4.172719955444336 10.87201023101807 4.380330085754395 10.33279991149902 4.380330085754395 C 10.04797172546387 4.380330085754395 9.771276473999023 4.322342395782471 9.510287284851074 4.207953929901123 C 8.761537551879883 3.884806871414185 8.275993347167969 3.149824857711792 8.272729873657227 2.329999923706055 L 8.272729873657227 2.272730112075806 C 8.272729873657227 2.122349977493286 8.15038013458252 2 8 2 C 7.84961986541748 2 7.727270126342773 2.122349977493286 7.727270126342773 2.272730112075806 L 7.727260112762451 2.384900093078613 C 7.723999977111816 3.202490091323853 7.236320018768311 3.938889980316162 6.484839916229248 4.260960102081299 C 6.412935733795166 4.29177713394165 6.337852001190186 4.313971042633057 6.261148452758789 4.327222347259521 C 6.053449630737305 4.396319389343262 5.837323188781738 4.431240081787109 5.616290092468262 4.431240081787109 C 5.077079772949219 4.431240081787109 4.567890167236328 4.223629951477051 4.182539939880371 3.846659898757935 C 4.179910182952881 3.844099998474121 4.177309989929199 3.841520071029663 4.174709796905518 3.838929891586304 L 4.136149883270264 3.800359964370728 C 4.084609985351563 3.748769998550415 4.016079902648926 3.720360040664673 3.943180084228516 3.720360040664673 C 3.870280027389526 3.720360040664673 3.801759958267212 3.748769998550415 3.74943995475769 3.80115008354187 C 3.6978600025177 3.852669954299927 3.669450044631958 3.921190023422241 3.669450044631958 3.99409008026123 C 3.669450044631958 4.066989898681641 3.6978600025177 4.135519981384277 3.749840021133423 4.187439918518066 L 3.788019895553589 4.225619792938232 C 3.790610074996948 4.228219985961914 3.793200016021729 4.230830192565918 3.795769929885864 4.233459949493408 C 4.377785205841064 4.828451156616211 4.542015552520752 5.701356410980225 4.218328952789307 6.465634346008301 C 3.918605327606201 7.244409084320068 3.190001726150513 7.758336544036865 2.353379964828491 7.777910232543945 C 2.345590114593506 7.778090000152588 2.337790012359619 7.778180122375488 2.329999923706055 7.778180122375488 L 2.272730112075806 7.778180122375488 C 2.122349977493286 7.778180122375488 2 7.900529861450195 2 8.050909996032715 C 2 8.201290130615234 2.122349977493286 8.323639869689941 2.272730112075806 8.323639869689941 L 2.384900093078613 8.323650360107422 C 3.200693607330322 8.326902389526367 3.935657024383545 8.812458038330078 4.258834362030029 9.561128616333008 C 4.596291065216064 10.33108615875244 4.434811115264893 11.21620750427246 3.846679925918579 11.81744956970215 C 3.844110012054443 11.8200798034668 3.841520071029663 11.8226900100708 3.838929891586304 11.82528972625732 L 3.800359964370728 11.86384963989258 C 3.748769998550415 11.91539001464844 3.720360040664673 11.98392009735107 3.720360040664673 12.05681991577148 C 3.720360040664673 12.12971973419189 3.748769998550415 12.19824028015137 3.80115008354187 12.25055980682373 C 3.852659940719604 12.30214023590088 3.921180009841919 12.33053970336914 3.99409008026123 12.33053970336914 C 4.066999912261963 12.33053970336914 4.1355299949646 12.3021297454834 4.187439918518066 12.25016021728516 L 4.225619792938232 12.21197986602783 C 4.228219985961914 12.20938968658447 4.230820178985596 12.20680999755859 4.233439922332764 12.20425033569336 C 4.618800163269043 11.82728004455566 5.127989768981934 11.61966991424561 5.667200088500977 11.61966991424561 C 5.94329833984375 11.61966991424561 6.211771011352539 11.67416477203369 6.465688228607178 11.78169441223145 C 7.244453430175781 12.08142757415771 7.758346557617188 12.81001758575439 7.777910232543945 13.64661979675293 C 7.778090000152588 13.65441036224365 7.778180122375488 13.66221046447754 7.778180122375488 13.67000007629395 L 7.778180122375488 13.72727012634277 C 7.778180122375488 13.87765026092529 7.900529861450195 14 8.050909996032715 14 M 8.050909996032715 15 C 7.348000049591064 15 6.778180122375488 14.43017959594727 6.778180122375488 13.72727012634277 L 6.778180122375488 13.67000007629395 C 6.768099784851074 13.23896980285645 6.495560169219971 12.85791969299316 6.090909957885742 12.70909023284912 C 5.954604625701904 12.64893245697021 5.810297012329102 12.61966896057129 5.667204856872559 12.61966896057129 C 5.398054122924805 12.61966896057129 5.133063793182373 12.72312450408936 4.932730197906494 12.91909027099609 L 4.89454984664917 12.9572696685791 C 4.655819892883301 13.19626045227051 4.33188009262085 13.33053970336914 3.99409008026123 13.33053970336914 C 3.656300067901611 13.33053970336914 3.332360029220581 13.19626045227051 3.093640089035034 12.9572696685791 C 2.854650020599365 12.71854972839355 2.720360040664673 12.39461040496826 2.720360040664673 12.05681991577148 C 2.720360040664673 11.71901988983154 2.854650020599365 11.39509010314941 3.093640089035034 11.15635967254639 L 3.1318199634552 11.11818027496338 C 3.431969881057739 10.81134033203125 3.515130043029785 10.35268974304199 3.341820001602173 9.960000038146973 C 3.176959991455078 9.575340270996094 2.799410104751587 9.325309753417969 2.38090991973877 9.323639869689941 L 2.272730112075806 9.323639869689941 C 1.569820046424866 9.323639869689941 1 8.753820419311523 1 8.050909996032715 C 1 7.348000049591064 1.569820046424866 6.778180122375488 2.272730112075806 6.778180122375488 L 2.329999923706055 6.778180122375488 C 2.761029958724976 6.768099784851074 3.142090082168579 6.495560169219971 3.290910005569458 6.090909957885742 C 3.46422004699707 5.698219776153564 3.381059885025024 5.239570140838623 3.080909967422485 4.932730197906494 L 3.042730093002319 4.89454984664917 C 2.80374002456665 4.655819892883301 2.669450044631958 4.33188009262085 2.669450044631958 3.99409008026123 C 2.669450044631958 3.656300067901611 2.80374002456665 3.332360029220581 3.042730093002319 3.093640089035034 C 3.281450033187866 2.854650020599365 3.605390071868896 2.720360040664673 3.943180084228516 2.720360040664673 C 4.280980110168457 2.720360040664673 4.604909896850586 2.854650020599365 4.843639850616455 3.093640089035034 L 4.881820201873779 3.1318199634552 C 5.082135200500488 3.327767610549927 5.347170352935791 3.431241273880005 5.616294384002686 3.431241273880005 C 5.759411811828613 3.431241273880005 5.903670787811279 3.401987791061401 6.039999961853027 3.341820001602173 L 6.090909957885742 3.341820001602173 C 6.475570201873779 3.176959991455078 6.725599765777588 2.799410104751587 6.727270126342773 2.38090991973877 L 6.727270126342773 2.272730112075806 C 6.727270126342773 1.569820046424866 7.29709005355835 1 8 1 C 8.702910423278809 1 9.272729873657227 1.569820046424866 9.272729873657227 2.272730112075806 L 9.272729873657227 2.329999923706055 C 9.274399757385254 2.748500108718872 9.524430274963379 3.126049995422363 9.909090042114258 3.290910005569458 C 10.04539585113525 3.351067066192627 10.1897029876709 3.38033127784729 10.33279514312744 3.38033127784729 C 10.6019458770752 3.38033127784729 10.86693668365479 3.276875972747803 11.06727027893066 3.080909967422485 L 11.10544967651367 3.042730093002319 C 11.3441801071167 2.80374002456665 11.66810989379883 2.669450044631958 12.00590991973877 2.669450044631958 C 12.34370040893555 2.669450044631958 12.66763973236084 2.80374002456665 12.90635967254639 3.042730093002319 C 13.14535045623779 3.281450033187866 13.27964019775391 3.605390071868896 13.27964019775391 3.943180084228516 C 13.27964019775391 4.280980110168457 13.14535045623779 4.604909896850586 12.90635967254639 4.843639850616455 L 12.86818027496338 4.881820201873779 C 12.56803035736084 5.188660144805908 12.48486995697021 5.64730978012085 12.65818023681641 6.039999961853027 L 12.65818023681641 6.090909957885742 C 12.82304000854492 6.475570201873779 13.20059013366699 6.725599765777588 13.61909008026123 6.727270126342773 L 13.72727012634277 6.727270126342773 C 14.43017959594727 6.727270126342773 15 7.29709005355835 15 8 C 15 8.702910423278809 14.43017959594727 9.272729873657227 13.72727012634277 9.272729873657227 L 13.67000007629395 9.272729873657227 C 13.25150012969971 9.274399757385254 12.87395000457764 9.524430274963379 12.70909023284912 9.909090042114258 C 12.53577995300293 10.30177974700928 12.61894035339355 10.76043033599854 12.91909027099609 11.06727027893066 L 12.9572696685791 11.10544967651367 C 13.19626045227051 11.3441801071167 13.33053970336914 11.66810989379883 13.33053970336914 12.00590991973877 C 13.33053970336914 12.34370040893555 13.19626045227051 12.66763973236084 12.9572696685791 12.90635967254639 C 12.71854972839355 13.14535045623779 12.39461040496826 13.27964019775391 12.05681991577148 13.27964019775391 C 11.71901988983154 13.27964019775391 11.39509010314941 13.14535045623779 11.15635967254639 12.90635967254639 L 11.11818027496338 12.86818027496338 C 10.91786479949951 12.67223262786865 10.65283012390137 12.56875896453857 10.38370513916016 12.56875896453857 C 10.24058818817139 12.56875896453857 10.09632968902588 12.59801197052002 9.960000038146973 12.65818023681641 C 9.575340270996094 12.82304000854492 9.325309753417969 13.20059013366699 9.323639869689941 13.61909008026123 L 9.323639869689941 13.72727012634277 C 9.323639869689941 14.43017959594727 8.753820419311523 15 8.050909996032715 15 Z" stroke="none" fill="#606060"/>
    </g>
  </g>
</svg>
