<svg xmlns="http://www.w3.org/2000/svg" width="16" height="16" viewBox="0 0 16 16">
  <g id="Modify" transform="translate(1841 4969)">
    <g id="edit" transform="translate(-1840.59 -4968.879)">
      <path id="Path_52214" data-name="Path 52214" d="M7.4,4H3.2A1.2,1.2,0,0,0,2,5.2v8.407a1.2,1.2,0,0,0,1.2,1.2h8.407a1.2,1.2,0,0,0,1.2-1.2V9.4" transform="translate(0 -0.93)" fill="none" stroke="#606060" stroke-linecap="round" stroke-linejoin="round" stroke-width="1"/>
      <g id="Path_52215" data-name="Path 52215" transform="translate(-1.931)" fill="none" stroke-linecap="round" stroke-linejoin="round">
        <path d="M13.9,2.228a1.191,1.191,0,1,1,1.685,1.685L10.246,9.248,8,9.81l.562-2.246Z" stroke="none"/>
        <path d="M 14.73945331573486 2.878677368164063 C 14.70329284667969 2.878677368164063 14.65046310424805 2.888407707214355 14.60413265228271 2.934738159179688 L 9.464583396911621 8.074287414550781 L 9.374369621276855 8.435140609741211 L 9.735222816467285 8.344927787780762 L 14.8747730255127 3.205377578735352 C 14.9493932723999 3.130767822265625 14.9493932723999 3.009347915649414 14.8747730255127 2.934738159179688 C 14.82844257354736 2.888407707214355 14.77561283111572 2.878677368164063 14.73945331573486 2.878677368164063 M 14.73945331573486 1.878683090209961 C 15.04435253143311 1.878683090209961 15.34925270080566 1.994997978210449 15.58188247680664 2.227627754211426 C 16.04714202880859 2.692888259887695 16.04714202880859 3.447227478027344 15.58188247680664 3.912487983703613 L 10.24648284912109 9.24788761138916 L 8.000003814697266 9.809507369995117 L 8.561622619628906 7.563027858734131 L 13.89702320098877 2.227627754211426 C 14.12965297698975 1.994997978210449 14.4345531463623 1.878683090209961 14.73945331573486 1.878683090209961 Z" stroke="none" fill="#606060"/>
      </g>
    </g>
    <rect id="Rectangle_9808" data-name="Rectangle 9808" width="16" height="16" transform="translate(-1841 -4969)" fill="none"/>
  </g>
</svg>
