<svg xmlns="http://www.w3.org/2000/svg" width="28" height="28" viewBox="0 0 28 28"><defs><style>.a{fill:#f5f5f5;stroke:#c4c4c4;}.b{fill:#707070;}.c{stroke:none;}.d{fill:none;}</style></defs><g transform="translate(-1311 -201)"><g transform="translate(114)"><g class="a" transform="translate(1197 201)"><rect class="c" width="28" height="28" rx="2"/><rect class="d" x="0.5" y="0.5" width="27" height="27" rx="1.5"/></g><g transform="translate(17889.369 3002.75)"><path class="b" d="M19.761,18.13a1.63,1.63,0,1,1-1.63-1.63A1.63,1.63,0,0,1,19.761,18.13Z" transform="translate(-16696.5 -2805.88)"/><path class="b" d="M19.761,7.63A1.63,1.63,0,1,1,18.13,6a1.63,1.63,0,0,1,1.63,1.63Z" transform="translate(-16696.5 -2800)"/><path class="b" d="M19.761,28.63A1.63,1.63,0,1,1,18.13,27,1.63,1.63,0,0,1,19.761,28.63Z" transform="translate(-16696.5 -2811.761)"/></g></g></g></svg>