<svg xmlns="http://www.w3.org/2000/svg" width="16" height="16" viewBox="0 0 16 16">
  <g id="Multiselect_blue" data-name="Multiselect / blue" transform="translate(-9263 15511)">
    <rect id="Rectangle_9806" data-name="Rectangle 9806" width="16" height="16" transform="translate(9263 -15511)" fill="none"/>
    <path id="Path_52213" data-name="Path 52213" d="M.291,3.469,5.75,5.945a.6.6,0,0,0,.5,0l5.459-2.477a.524.524,0,0,0,0-.938L6.249.054a.6.6,0,0,0-.5,0L.291,2.53a.524.524,0,0,0,0,.938ZM11.709,5.538l-1.361-.617L6.559,6.638a1.351,1.351,0,0,1-1.118,0L1.652,4.921.291,5.538a.523.523,0,0,0,0,.937L5.75,8.95a.6.6,0,0,0,.5,0l5.46-2.475a.523.523,0,0,0,0-.937Zm0,3-1.356-.615L6.559,9.638a1.351,1.351,0,0,1-1.118,0L1.647,7.918.291,8.533a.523.523,0,0,0,0,.937L5.75,11.945a.6.6,0,0,0,.5,0L11.71,9.47a.523.523,0,0,0,0-.937Z" transform="translate(9265 -15508.999)" fill="#0072c6"/>
  </g>
</svg>
