<svg xmlns="http://www.w3.org/2000/svg" width="11.513" height="12" viewBox="0 0 11.513 12"><defs><style>.a{fill:#606060;}</style></defs><path class="a" d="M26.3,9.6h.065l3.13-.681a.308.308,0,0,0,.162-.081l5.3-5.3a2.043,2.043,0,0,0,.6-1.459A2.108,2.108,0,0,0,34.958.6,2.043,2.043,0,0,0,33.5,0a2,2,0,0,0-1.459.616l-5.286,5.3a.292.292,0,0,0-.1.146L25.974,9.2a.357.357,0,0,0,.1.308A.324.324,0,0,0,26.3,9.6ZM33.5.649A1.411,1.411,0,0,1,34.91,2.06q0,.008,0,.016a1.362,1.362,0,0,1-.405.989L32.509,1.055A1.4,1.4,0,0,1,33.5.649Zm-1.443.876L34.05,3.519,29.428,8.125,27.434,6.146ZM27.174,6.8,28.78,8.4l-2.059.454Z" transform="translate(-25.407 0)"/><path class="a" d="M19.027,365.717H8.162a.324.324,0,1,0,0,.649H19.027a.324.324,0,1,0,0-.649Z" transform="translate(-7.838 -354.366)"/></svg>