<svg xmlns="http://www.w3.org/2000/svg" width="97.243" height="102.563" viewBox="0 0 97.243 102.563"><defs><style>.a,.c{fill:#fff;}.a,.b{stroke:rgba(255,102,0,0.4);}.b{fill:#ffb584;}.d{fill:rgba(255,102,0,0.4);}.e{fill:rgba(13,111,8,0.4);}.f{fill:rgba(0,114,198,0.4);}</style></defs><g transform="translate(-382.282 -210.775)"><g transform="translate(382.782 211.275)"><g transform="translate(0 0)"><path class="a" d="M77.333,91.7c-20.49,0-34.561,10.447-44.434,10.447S2.29,96.56,2.29,51.853,30.186.583,41.045.583C91.9.583,113.621,91.7,77.333,91.7Z" transform="translate(-2.29 -0.583)"/><g transform="translate(83.961 8.8)"><path class="b" d="M0,0H3.9V1.952H0Z" transform="translate(7.245 3.107) rotate(-45)"/><path class="b" d="M0,0H1.952V3.9H0Z" transform="translate(7.935 9.318) rotate(-45)"/><path class="b" d="M0,0H1.952V3.9H0Z" transform="translate(0 1.38) rotate(-45)"/></g></g></g><g transform="translate(401.558 233.335)"><path class="c" d="M41.29,10H12.173A2.173,2.173,0,0,0,10,12.173V61.285a2.173,2.173,0,0,0,2.173,2.173H49.548a2.173,2.173,0,0,0,2.173-2.173V20.431Z" transform="translate(-8.913 -8.913)"/><path class="d" d="M300.148,20.433h8.258L297.975,10V18.26A2.173,2.173,0,0,0,300.148,20.433Z" transform="translate(-265.599 -8.915)"/><rect class="e" width="6.954" height="9.738" transform="translate(13.69 44.806)"/><rect class="f" width="7" height="23" transform="translate(36.816 30.816)"/><rect class="d" width="8" height="15" transform="translate(24.816 38.816)"/><rect class="f" width="6.954" height="30.776" transform="translate(47.591 23.768)"/><path d="M54.545,22.682H47.591A1.087,1.087,0,0,0,46.5,23.768v5.487a1.087,1.087,0,0,0,2.173,0v-4.4h4.781v28.6H48.677V37.4a1.087,1.087,0,1,0-2.173,0V53.458H44.331V30.967a1.087,1.087,0,0,0-1.087-1.087H36.291A1.087,1.087,0,0,0,35.2,30.967V53.458H33.031V38.572a1.087,1.087,0,0,0-1.087-1.087H24.991A1.087,1.087,0,0,0,23.9,38.572V53.458H21.731V44.806a1.087,1.087,0,0,0-1.087-1.087H13.69A1.087,1.087,0,0,0,12.6,44.806v8.652H3.26a1.088,1.088,0,0,1-1.087-1.087V3.26A1.088,1.088,0,0,1,3.26,2.173H31.29V9.345a3.263,3.263,0,0,0,3.26,3.26h7.171V25.968a1.087,1.087,0,1,0,2.173,0V11.518a1.087,1.087,0,0,0-.318-.768L33.145.318A1.087,1.087,0,0,0,32.376,0H3.26A3.263,3.263,0,0,0,0,3.26V52.371a3.263,3.263,0,0,0,3.26,3.26H54.545a1.087,1.087,0,0,0,1.087-1.087V23.768A1.087,1.087,0,0,0,54.545,22.682ZM33.463,9.345V3.71l6.721,6.721H34.549A1.088,1.088,0,0,1,33.463,9.345ZM14.777,53.458V45.893h4.781v7.565Zm11.3,0v-13.8h4.781v13.8Zm11.3,0v-21.4h4.781v21.4Z"/><path d="M429.087,297.063a1.087,1.087,0,1,0-.768-.318A1.095,1.095,0,0,0,429.087,297.063Z" transform="translate(-381.496 -262.849)"/><path d="M70.08,295.337c0-.6-.341-1.087-.762-1.087H54.762c-.421,0-.762.487-.762,1.087s.341,1.087.762,1.087H69.317C69.738,296.423,70.08,295.937,70.08,295.337Z" transform="translate(-48.133 -263.278)"/><path d="M70.08,295.337c0-.6-.341-1.087-.762-1.087H54.762c-.421,0-.762.487-.762,1.087s.341,1.087.762,1.087H69.317C69.738,296.423,70.08,295.937,70.08,295.337Z" transform="translate(-48.133 -269.278)"/><path d="M55.087,342.5a1.087,1.087,0,0,0,0,2.173H62.04a1.087,1.087,0,0,0,0-2.173Z" transform="translate(-48.133 -305.286)"/><path d="M168.4,342.818a1.086,1.086,0,1,0,.768-.318A1.09,1.09,0,0,0,168.4,342.818Z" transform="translate(-149.817 -305.286)"/><path d="M76.926,295.337a1.087,1.087,0,0,0-1.087-1.087H55.087a1.087,1.087,0,0,0,0,2.173H75.84A1.087,1.087,0,0,0,76.926,295.337Z" transform="translate(-48.133 -275.278)"/><path d="M76.926,295.337a1.087,1.087,0,0,0-1.087-1.087H55.087a1.087,1.087,0,0,0,0,2.173H75.84A1.087,1.087,0,0,0,76.926,295.337Z" transform="translate(-48.133 -281.278)"/></g></g></svg>