<svg xmlns="http://www.w3.org/2000/svg" width="69.288" height="73" viewBox="0 0 69.288 73"><defs><style>.a{fill:#fff;}.a,.b{stroke:rgba(255,102,0,0.4);}.b{fill:#ffb584;}.c{fill:rgba(255,102,0,0.4);}.d{fill:rgba(0,114,198,0.4);}</style></defs><g transform="translate(-382.282 -210.775)"><g transform="translate(382.782 211.275)"><g transform="translate(0 0)"><path class="a" d="M55.665,65.177c-14.574,0-24.582,7.406-31.6,7.406S2.29,68.623,2.29,36.929,22.131.583,29.855.583C66.025.583,81.475,65.177,55.665,65.177Z" transform="translate(-2.29 -0.583)"/><g transform="translate(60.412 5.59)"><path class="b" d="M0,0H2.48V1.24H0Z" transform="translate(4.602 1.974) rotate(-45)"/><path class="b" d="M0,0H1.24V2.48H0Z" transform="translate(5.04 5.919) rotate(-45)"/><path class="b" d="M0,0H1.24V2.48H0Z" transform="translate(0 0.877) rotate(-45)"/></g></g></g><g transform="translate(397.857 231.474)"><path class="c" d="M24.728.14H2.473A2.4,2.4,0,0,0,0,2.452V5a3.5,3.5,0,0,0,1.139,2.57l8.235,7.692a1.612,1.612,0,0,1,.517,1.166V26.889a.988.988,0,0,0,.617.9,1.124,1.124,0,0,0,.442.091,1.1,1.1,0,0,0,.69-.239L15.6,24.469a3.533,3.533,0,0,0,1.356-2.757V16.454a1.61,1.61,0,0,1,.54-1.189l8.516-7.682A3.54,3.54,0,0,0,27.2,4.969V2.452A2.4,2.4,0,0,0,24.728.14Z" transform="translate(0 0)"/><path class="d" d="M25.688,12.166H16.479A2.485,2.485,0,0,0,14,14.651V26.719A2.485,2.485,0,0,0,16.479,29.2h9.208a2.485,2.485,0,0,0,2.479-2.485V14.651a2.485,2.485,0,0,0-2.479-2.485Z" transform="translate(3.763 2.936)"/><path d="M10.951,27.876a1.122,1.122,0,0,1-.442-.09.989.989,0,0,1-.617-.9V16.425a1.614,1.614,0,0,0-.519-1.17L1.139,7.561A3.486,3.486,0,0,1,0,5V2.451A2.4,2.4,0,0,1,2.473.142H24.728A2.4,2.4,0,0,1,27.2,2.451V4.969A3.534,3.534,0,0,1,26.013,7.58L17.5,15.261a1.612,1.612,0,0,0-.541,1.19v5.259A3.533,3.533,0,0,1,15.6,24.465l-3.959,3.173a1.108,1.108,0,0,1-.691.239ZM2.473,2.119a.343.343,0,0,0-.353.332V5a1.614,1.614,0,0,0,.519,1.17l8.234,7.692a3.488,3.488,0,0,1,1.139,2.568v8.312l2.209-1.77a1.609,1.609,0,0,0,.617-1.256V16.452a3.534,3.534,0,0,1,1.187-2.611L24.54,6.159a1.612,1.612,0,0,0,.541-1.19V2.451a.343.343,0,0,0-.353-.332Z" transform="translate(0 0.001)"/><path d="M25.688,29.2H16.479A2.482,2.482,0,0,1,14,26.72V14.646a2.482,2.482,0,0,1,2.479-2.479h9.208a2.482,2.482,0,0,1,2.479,2.479V26.72A2.482,2.482,0,0,1,25.688,29.2ZM16.479,14.292a.354.354,0,0,0-.354.354V26.72a.354.354,0,0,0,.354.354h9.208a.354.354,0,0,0,.354-.354V14.646a.354.354,0,0,0-.354-.354Z" transform="translate(3.763 2.936)"/><path d="M21.6,18.051H18.063a1.063,1.063,0,0,1,0-2.125H21.6a1.063,1.063,0,0,1,0,2.125Z" transform="translate(5.013 5.125)"/><path d="M21.6,21.058H18.063a1.062,1.062,0,1,1,0-2.125H21.6a1.062,1.062,0,1,1,0,2.125Z" transform="translate(5.013 6.101)"/></g></g></svg>