<svg xmlns="http://www.w3.org/2000/svg" width="24" height="24" viewBox="0 0 24 24"><defs><style>.a,.b{fill:none;}.c,.d{stroke:none;}.d{fill:#000;}</style></defs><g transform="translate(-10690 16274)"><rect class="a" width="24" height="24" transform="translate(10690 -16274)"/><g class="b" transform="translate(10692 -16272)"><path class="c" d="M11.127,12.154,7.369,16l.6-3.385L2.857,6.308,0,6.461,6.317,0V2.461L12.328,8l3.761-.921L12.182,11.23,20,20l-8.873-7.846Z"/><path class="d" d="M 9.301492691040039 11.87568855285645 L 10.05387020111084 11.10579013824463 L 11.05123043060303 10.08520030975342 L 11.13202571868896 10.15664005279541 L 11.74705219268799 9.503181457519531 L 11.31198978424072 9.102370262145996 L 5.30033016204834 3.564029932022095 L 5.105469226837158 3.384511232376099 L 3.635885000228882 4.88763427734375 L 4.021830081939697 5.363669872283936 L 9.134329795837402 11.66950988769531 L 9.301492691040039 11.87568855285645 M 20 20 L 11.12666988372803 12.15417003631592 L 7.369170188903809 15.99917030334473 L 7.969170093536377 12.61417007446289 L 2.856669902801514 6.308330059051514 L 0 6.460830211639404 L 6.316669940948486 0 L 6.316669940948486 2.460829973220825 L 12.32833003997803 7.999169826507568 L 16.08917045593262 7.078330039978027 L 12.18167018890381 11.22999954223633 L 20 20 Z"/></g></g></svg>