<svg xmlns="http://www.w3.org/2000/svg" width="16" height="16" viewBox="0 0 16 16"><defs><style>.a,.b{fill:none;}.c,.d{stroke:none;}.d{fill:#606060;}</style></defs><g transform="translate(-10690 16274)"><rect class="a" width="16" height="16" transform="translate(10690 -16274)"/><g class="b" transform="translate(10692 -16272)"><path class="c" d="M5.324,7.293,7.578,9.6l-.36-2.031,3.067-3.784L12,3.877,8.21,0V1.477L4.6,4.8,2.347,4.247,4.691,6.738,0,12,5.324,7.293Z"/><path class="d" d="M 6.412140369415283 6.975204944610596 L 9.684694290161133 2.938790798187256 L 8.933086395263672 2.170028686523438 L 5.093863964080811 5.70696496963501 L 5.32717227935791 5.954851627349854 L 5.374289989471436 5.913189888000488 L 6.412140369415283 6.975204944610596 M -8.881784197001252e-16 12 L 4.690999984741211 6.73799991607666 L 2.346499919891357 4.247000217437744 L 4.603000164031982 4.799499988555908 L 8.210000038146973 1.476500034332275 L 8.210000038146973 -8.881784197001252e-16 L 12 3.876499891281128 L 10.28600025177002 3.785000085830688 L 7.218500137329102 7.56850004196167 L 7.578499794006348 9.599499702453613 L 5.323999881744385 7.292500019073486 L -8.881784197001252e-16 12 Z"/></g></g></svg>