<svg xmlns="http://www.w3.org/2000/svg" width="16" height="16" viewBox="0 0 16 16"><defs><style>.a,.b{fill:none;}.b{stroke:#d53d3d;stroke-linecap:round;stroke-linejoin:round;}</style></defs><g transform="translate(6361 19204)"><rect class="a" width="16" height="16" transform="translate(-6361 -19204)"/><g transform="translate(-6362 -19204)"><path class="b" d="M3,6H15" transform="translate(0 -1.257)"/><path class="b" d="M13,4.863V12.8A1.172,1.172,0,0,1,11.857,14H6.143A1.172,1.172,0,0,1,5,12.8V4.863M6.714,4.4V3.2A1.172,1.172,0,0,1,7.857,2h2.286a1.172,1.172,0,0,1,1.143,1.2V4.4" transform="translate(0 0)"/><line class="b" y2="6" transform="translate(7.667 5.857)"/><line class="b" y2="6" transform="translate(10.333 5.857)"/></g></g></svg>