<svg xmlns="http://www.w3.org/2000/svg" width="16" height="16" viewBox="0 0 16 16"><defs><style>.a,.b,.c{fill:none;}.b{stroke:#606060;}.b,.c{stroke-linejoin:round;}.d,.e{stroke:none;}.e{fill:#606060;}</style></defs><g transform="translate(6360 19299)"><rect class="a" width="16" height="16" transform="translate(-6360 -19299)"/><g transform="translate(-6360 -19298.879)"><path class="b" d="M7.379,4H3.2A1.2,1.2,0,0,0,2,5.2v8.368a1.2,1.2,0,0,0,1.2,1.2h8.368a1.2,1.2,0,0,0,1.2-1.2V9.379" transform="translate(0 -0.88)"/><g class="c" transform="translate(-3.387 0)"><path class="d" d="M14.98,2.287a1.421,1.421,0,0,1,1.994,0,1.384,1.384,0,0,1,0,1.973l-6.315,6.247L8,11.165l.665-2.63Z"/><path class="e" d="M 15.97700881958008 2.87867546081543 C 15.91237831115723 2.87867546081543 15.78826904296875 2.894195556640625 15.68315887451172 2.998175621032715 L 9.56602954864502 9.049455642700195 L 9.377889633178711 9.793914794921875 L 10.15155124664307 9.602580070495605 L 16.2708683013916 3.549125671386719 C 16.3720588684082 3.44902515411377 16.38715744018555 3.333564758300781 16.38715744018555 3.273645401000977 C 16.38715744018555 3.213735580444336 16.3720588684082 3.098275184631348 16.27085876464844 2.998175621032715 C 16.1657600402832 2.894195556640625 16.0416374206543 2.87867546081543 15.97700881958008 2.87867546081543 M 15.97700977325439 1.878677368164062 C 16.33789825439453 1.878677368164062 16.69878768920898 2.014870643615723 16.97414016723633 2.28725528717041 C 17.52483940124512 2.832025527954102 17.52483940124512 3.715274810791016 16.97414016723633 4.260045051574707 L 10.65900897979736 10.50720500946045 L 7.999998092651367 11.16480541229248 L 8.664749145507812 8.534415245056152 L 14.97988891601562 2.28725528717041 C 15.25523376464844 2.014870643615723 15.61612129211426 1.878677368164062 15.97700977325439 1.878677368164062 Z"/></g></g></g></svg>