<svg xmlns="http://www.w3.org/2000/svg" width="20" height="20" viewBox="0 0 16 16">
  <g id="Play" transform="translate(-7943 -6847)">
    <path id="Path_80" data-name="Path 80" d="M0,0H16m0,16H0" transform="translate(7943 6847)" fill="none"/>
    <path id="Path_82" data-name="Path 82" d="M0,0H16V16H0Z" transform="translate(7943 6847)" fill="none"/>
    <g id="Group_50685" data-name="Group 50685" transform="translate(-1 -29)">
      <g id="play-circle" transform="translate(7945.571 6877)">
        <g id="Path_50831" data-name="Path 50831" transform="translate(-4.571 -3)" fill="none" stroke-linecap="round" stroke-linejoin="round">
          <path d="M10,8l3.2,2L10,12Z" stroke="none"/>
          <path d="M 10 8 L 10 12 L 13.20000076293945 10 L 10 8 M 9.999973297119141 6.999998092651367 C 10.18422222137451 6.999998092651367 10.3681697845459 7.05085563659668 10.53000068664551 7.152000427246094 L 13.73000049591064 9.152000427246094 C 14.02238082885742 9.334739685058594 14.20000076293945 9.655209541320801 14.20000076293945 10 C 14.20000076293945 10.3447904586792 14.02238082885742 10.66526031494141 13.73000049591064 10.84799957275391 L 10.53000068664551 12.84799957275391 C 10.36818885803223 12.94913291931152 10.18420124053955 13.00000190734863 9.999973297119141 13.00000190734863 C 9.833225250244141 13.00000190734863 9.666292190551758 12.95836639404297 9.515230178833008 12.8746395111084 C 9.197279930114746 12.69841957092285 9 12.36353015899658 9 12 L 9 8 C 9 7.636469841003418 9.197279930114746 7.301580429077148 9.515230178833008 7.125359535217285 C 9.66627311706543 7.041644096374512 9.833247184753418 6.999998092651367 9.999973297119141 6.999998092651367 Z" stroke="none" fill="#606060"/>
        </g>
      </g>
      <g id="Ellipse_2104" data-name="Ellipse 2104" transform="translate(7946 6878)" fill="none" stroke="#606060" stroke-width="1">
        <circle cx="6" cy="6" r="6" stroke="none"/>
        <circle cx="6" cy="6" r="5.5" fill="none"/>
      </g>
    </g>
  </g>
</svg>
