<svg id="Refresh_Orange" data-name="Refresh / Orange" xmlns="http://www.w3.org/2000/svg" width="16" height="16" viewBox="0 0 16 16">
  <path id="Path_78" data-name="Path 78" d="M0,0H16V16H0Z" fill="none"/>
  <path id="Path_79" data-name="Path 79" d="M14.091,6.909,11.182,9.818h2.182A4.367,4.367,0,0,1,9,14.182a4.269,4.269,0,0,1-2.036-.509L5.9,14.735a5.808,5.808,0,0,0,8.916-4.916H17ZM4.636,9.818A4.367,4.367,0,0,1,9,5.455a4.269,4.269,0,0,1,2.036.509L12.1,4.9A5.808,5.808,0,0,0,3.182,9.818H1l2.909,2.909L6.818,9.818Z" transform="translate(-1 -2)" fill="#f60"/>
</svg>
