<svg xmlns="http://www.w3.org/2000/svg" width="16.698" height="16.698" viewBox="0 0 16.698 16.698"><defs><style>.a{fill:#3d3d3d;}</style></defs><path class="a" d="M15.231,0H1.468A1.469,1.469,0,0,0,0,1.468V15.231A1.469,1.469,0,0,0,1.468,16.7H15.231A1.469,1.469,0,0,0,16.7,15.231V1.468A1.469,1.469,0,0,0,15.231,0Zm.489,15.231a.49.49,0,0,1-.489.489H1.468a.49.49,0,0,1-.489-.489V1.468A.49.49,0,0,1,1.468.978H15.231a.49.49,0,0,1,.489.489Z"/><g transform="translate(3.294 3.294)"><path class="a" d="M110.967,101.143a.489.489,0,0,0-.692,0l-9.132,9.132a.489.489,0,1,0,.692.692l9.132-9.132A.489.489,0,0,0,110.967,101.143Z" transform="translate(-101 -100.999)"/></g></svg>