<svg xmlns="http://www.w3.org/2000/svg" width="15.25" height="15.515" viewBox="0 0 15.25 15.515"><defs><style>.a{fill:none;stroke:#000;stroke-linejoin:round;stroke-width:1.25px;fill-rule:evenodd;}</style></defs><g transform="translate(-1.555 -1.444)"><path class="a" d="M10.939,2.069a7.1,7.1,0,0,1,1.946.822L12.8,4.619a5.867,5.867,0,0,1,.879.9l1.7-.088a7.385,7.385,0,0,1,.807,1.983l-1.26,1.16a6.078,6.078,0,0,1,0,1.266l1.26,1.16a7.387,7.387,0,0,1-.807,1.984l-1.7-.088a5.874,5.874,0,0,1-.878.894l.086,1.728a7.1,7.1,0,0,1-1.947.822L9.8,15.05a5.766,5.766,0,0,1-1.242,0L7.421,16.335a7.1,7.1,0,0,1-1.947-.822l.086-1.728a5.871,5.871,0,0,1-.878-.894l-1.7.088a7.385,7.385,0,0,1-.807-1.984l1.26-1.16a6.08,6.08,0,0,1,0-1.266L2.18,7.409a7.385,7.385,0,0,1,.807-1.983l1.7.088a5.864,5.864,0,0,1,.879-.9L5.474,2.891A7.1,7.1,0,0,1,7.419,2.07L8.557,3.354a5.75,5.75,0,0,1,1.245,0ZM9.18,6.261A2.942,2.942,0,1,0,12.066,9.2,2.914,2.914,0,0,0,9.18,6.261Z" transform="translate(0 0)"/></g></svg>