<svg xmlns="http://www.w3.org/2000/svg" width="24" height="24" viewBox="0 0 24 24"><defs><style>.a,.b,.c{fill:none;}.b,.c{stroke-linecap:round;stroke-linejoin:round;}.c{stroke:#fff;stroke-width:2px;}.d,.e{stroke:none;}.e{fill:#fff;}</style></defs><g transform="translate(-7)"><rect class="a" width="24" height="24" transform="translate(7)"/><g transform="translate(7)"><g class="b"><path class="d" d="M3,9l9-7,9,7V20a2,2,0,0,1-2,2H5a2,2,0,0,1-2-2Z"/><path class="e" d="M 12 4.533718109130859 L 5 9.978161811828613 L 5 20 L 19 20 L 19 9.978161811828613 L 12 4.533718109130859 M 12 2 L 21 9 L 21 20 C 21 21.10457038879395 20.10457038879395 22 19 22 L 5 22 C 3.895429611206055 22 3 21.10457038879395 3 20 L 3 9 L 12 2 Z"/></g><path class="c" d="M9,22V12h6V22" transform="translate(0 -1)"/></g></g></svg>