<svg xmlns="http://www.w3.org/2000/svg" width="35" height="17" viewBox="0 0 35 17">
  <g id="Switch_-_Graphical" data-name="Switch - Graphical" transform="translate(-4437.5 3061.5)">
    <rect id="Rectangle_357" data-name="Rectangle 357" width="34" height="16" rx="2" transform="translate(4438 -3061)" fill="#e4e4e4" stroke="#dadada" stroke-width="1"/>
    <rect id="Rectangle_358" data-name="Rectangle 358" width="16" height="14" rx="1" transform="translate(4455 -3060)" fill="#fff"/>
    <g id="Group_708" data-name="Group 708" transform="translate(-65 9)">
      <path id="Path_87" data-name="Path 87" d="M0,0H16V16H0Z" transform="translate(4504 -3070)" fill="none"/>
      <g id="Group_707" data-name="Group 707" transform="translate(0 -12)">
        <g id="Rectangle_351" data-name="Rectangle 351" transform="translate(4507 -3054)" fill="#fff" stroke="#606060" stroke-width="1">
          <rect width="10" height="1.5" stroke="none"/>
          <rect x="0.5" y="0.5" width="9" height="0.5" fill="none"/>
        </g>
        <g id="Rectangle_352" data-name="Rectangle 352" transform="translate(4507 -3051)" fill="#fff" stroke="#606060" stroke-width="1">
          <rect width="10" height="1.5" stroke="none"/>
          <rect x="0.5" y="0.5" width="9" height="0.5" fill="none"/>
        </g>
        <g id="Rectangle_353" data-name="Rectangle 353" transform="translate(4507 -3048)" fill="#fff" stroke="#606060" stroke-width="1">
          <rect width="10" height="1.5" stroke="none"/>
          <rect x="0.5" y="0.5" width="9" height="0.5" fill="none"/>
        </g>
      </g>
    </g>
    <g id="Group_709" data-name="Group 709" transform="translate(-67 9)">
      <path id="Path_76" data-name="Path 76" d="M0,0H16V16H0Z" transform="translate(4522 -3070)" fill="none"/>
      <g id="Group_706" data-name="Group 706" transform="translate(1480 -7593) rotate(90)">
        <g id="Rectangle_356" data-name="Rectangle 356" transform="translate(4531 -3054)" fill="#fff" stroke="#606060" stroke-width="1">
          <rect width="5" height="1.5" stroke="none"/>
          <rect x="0.5" y="0.5" width="4" height="0.5" fill="none"/>
        </g>
        <g id="Rectangle_355" data-name="Rectangle 355" transform="translate(4526 -3051)" fill="#fff" stroke="#606060" stroke-width="1">
          <rect width="10" height="1.5" stroke="none"/>
          <rect x="0.5" y="0.5" width="9" height="0.5" fill="none"/>
        </g>
        <g id="Rectangle_354" data-name="Rectangle 354" transform="translate(4529 -3048)" fill="#fff" stroke="#606060" stroke-width="1">
          <rect width="7" height="1.5" stroke="none"/>
          <rect x="0.5" y="0.5" width="6" height="0.5" fill="none"/>
        </g>
      </g>
    </g>
  </g>
</svg>
