<svg xmlns="http://www.w3.org/2000/svg" width="16.899" height="16.899" viewBox="0 0 16.899 16.899"><defs><style>.a{fill:#0072c6;}</style></defs><g transform="translate(0 -0.001)"><path class="a" d="M5.07,16.028a2.95,2.95,0,0,0,.871-2.1,3.453,3.453,0,0,1,1.951-2.2c.285-.118.674-.21.907.023l.271.271,0,0a1.985,1.985,0,0,0,2.8,0l4.881-4.881a.495.495,0,0,0,0-.7l-6.3-6.3a.5.5,0,0,0-.7,0L4.871,5.027a1.985,1.985,0,0,0,0,2.8l.273.273a.506.506,0,0,1,.145.382A3.34,3.34,0,0,1,2.97,10.958,2.974,2.974,0,0,0,0,13.929H0a2.969,2.969,0,0,0,5.07,2.1ZM10.1,1.2l5.6,5.6L13.6,8.9,8,3.3ZM1.571,15.328a1.979,1.979,0,0,1,1.4-3.38,3.359,3.359,0,0,0,2.164-1.172A3.725,3.725,0,0,0,6.28,8.482,1.5,1.5,0,0,0,5.845,7.4l-.273-.273a.995.995,0,0,1,0-1.4L7.3,4l5.6,5.6-1.73,1.73a.995.995,0,0,1-1.4,0L9.5,11.054a1.728,1.728,0,0,0-1.986-.237c-1.185.491-2.562,1.957-2.562,3.112a1.979,1.979,0,0,1-3.38,1.4Z"/><circle class="a" cx="0.469" cy="0.469" r="0.469" transform="translate(2.815 13.144)"/></g></svg>