<svg xmlns="http://www.w3.org/2000/svg" width="9.177" height="12" viewBox="0 0 9.177 12"><defs><style>.a{fill:#606060;}</style></defs><path class="a" d="M240,240h.706v3.882H240Z" transform="translate(-235.766 -234.353)"/><path class="a" d="M180,240h.706v3.882H180Z" transform="translate(-177.176 -234.353)"/><path class="a" d="M300,240h.706v3.882H300Z" transform="translate(-294.354 -234.353)"/><path class="a" d="M69.176,1.412H66.353V1.059A1.06,1.06,0,0,0,65.294,0H63.882a1.06,1.06,0,0,0-1.059,1.059v.353H60V3.529h.735l.649,7.465A1.056,1.056,0,0,0,62.442,12h4.293a1.056,1.056,0,0,0,1.058-1.006l.649-7.465h.735Zm-5.647-.353a.353.353,0,0,1,.353-.353h1.412a.353.353,0,0,1,.353.353v.353H63.529ZM60.706,2.118h7.765v.706H60.706Zm6.381,8.838a.352.352,0,0,1-.353.338H62.442a.352.352,0,0,1-.353-.338l-.645-7.426h6.289Z" transform="translate(-60)"/></svg>