<svg xmlns="http://www.w3.org/2000/svg" width="97.243" height="102.563" viewBox="0 0 97.243 102.563"><defs><style>.a,.c{fill:#fff;}.a,.b{stroke:rgba(255,102,0,0.4);}.b{fill:#ffb584;}.d{fill:rgba(0,114,198,0.4);}.e{fill:rgba(13,111,8,0.4);}.f{fill:rgba(255,102,0,0.4);}</style></defs><g transform="translate(-382.282 -210.775)"><g transform="translate(382.782 211.275)"><g transform="translate(0 0)"><path class="a" d="M77.333,91.7c-20.49,0-34.561,10.447-44.434,10.447S2.29,96.56,2.29,51.853,30.186.583,41.045.583C91.9.583,113.621,91.7,77.333,91.7Z" transform="translate(-2.29 -0.583)"/><g transform="translate(83.961 8.8)"><path class="b" d="M0,0H3.9V1.952H0Z" transform="translate(7.245 3.107) rotate(-45)"/><path class="b" d="M0,0H1.952V3.9H0Z" transform="translate(7.935 9.318) rotate(-45)"/><path class="b" d="M0,0H1.952V3.9H0Z" transform="translate(0 1.38) rotate(-45)"/></g></g></g><g transform="translate(338.567 232.125)"><g transform="translate(67.52 0.85)"><path class="c" d="M74.171,7.5H115.4V63.851H74.171Z" transform="translate(-74.171 -7.5)"/></g><g transform="translate(71.186 11.96)"><g transform="translate(0 0)"><path class="d" d="M112.223,111.213v-5.727a5.727,5.727,0,1,0,5.727,5.727Z" transform="translate(-106.496 -105.486)"/></g><g transform="translate(5.727)"><path class="e" d="M157,105.486v5.727h5.727A5.727,5.727,0,0,0,157,105.486Z" transform="translate(-157.004 -105.486)"/></g></g><g transform="translate(78.974 4.515)"><path class="f" d="M175.187,39.825h18.326V43.49H175.187Z" transform="translate(-175.187 -39.825)"/></g><g transform="translate(71.644 32.92)"><g transform="translate(0 16.951)"><path class="e" d="M110.537,439.85h5.5v3.665h-5.5Z" transform="translate(-110.537 -439.85)"/></g><g transform="translate(9.163 11.453)"><path class="f" d="M191.35,391.362h5.5v9.163h-5.5Z" transform="translate(-191.35 -391.362)"/></g><g transform="translate(18.326 4.581)"><path class="d" d="M272.163,330.752h5.5v16.035h-5.5Z" transform="translate(-272.163 -330.752)"/></g><g transform="translate(27.488)"><path class="d" d="M352.976,290.346h5.5v20.616h-5.5Z" transform="translate(-352.976 -290.346)"/></g></g><g transform="translate(66.67)"><path d="M108.753,0H67.52a.85.85,0,0,0-.85.85V41.244a.85.85,0,1,0,1.7,0V1.7H107.9V7.047a.85.85,0,0,0,1.7,0V.85A.85.85,0,0,0,108.753,0Z" transform="translate(-66.67)"/><path d="M108.753,89.65a.85.85,0,0,0-.85.85v45.336H68.371V124.7a.85.85,0,1,0-1.7,0v11.989a.85.85,0,0,0,.85.85h41.233a.85.85,0,0,0,.85-.85V90.5A.85.85,0,0,0,108.753,89.65Z" transform="translate(-66.67 -79.485)"/><path d="M99,104.563a6.577,6.577,0,1,0,6.577-6.577A6.584,6.584,0,0,0,99,104.563Zm6.577,4.876a4.876,4.876,0,0,1-.85-9.677v4.8a.85.85,0,0,0,.85.85h4.8A4.883,4.883,0,0,1,105.573,109.439Zm4.8-5.727h-3.95v-3.95A4.888,4.888,0,0,1,110.374,103.713Z" transform="translate(-95.331 -86.876)"/><path d="M103.886,432.35a.85.85,0,0,0-.85.85v3.665a.85.85,0,0,0,.85.85h5.5a.85.85,0,0,0,.85-.85V433.2a.85.85,0,0,0-.85-.85Zm4.647,3.665h-3.8v-1.964h3.8Z" transform="translate(-98.913 -383.329)"/><path d="M184.7,394.725h5.5a.85.85,0,0,0,.85-.85v-9.163a.85.85,0,0,0-.85-.85h-5.5a.85.85,0,0,0-.85.85v9.163A.85.85,0,0,0,184.7,394.725Zm.85-9.163h3.8v7.462h-3.8Z" transform="translate(-170.564 -340.339)"/><path d="M265.513,323.252a.85.85,0,0,0-.85.85v16.035a.85.85,0,0,0,.85.85h5.5a.85.85,0,0,0,.85-.85V324.1a.85.85,0,0,0-.85-.85Zm4.647,16.035h-3.8V324.953h3.8Z" transform="translate(-242.214 -286.601)"/><path d="M351.827,287.55a.85.85,0,0,0,.85-.85v-3a.85.85,0,0,0-.85-.85h-5.5a.85.85,0,0,0-.85.85v20.615a.85.85,0,0,0,.85.85h5.5a.85.85,0,0,0,.85-.85V290.668a.85.85,0,1,0-1.7,0v12.8h-3.8V284.551h3.8V286.7A.85.85,0,0,0,351.827,287.55Z" transform="translate(-313.868 -250.78)"/><path d="M186.863,32.325H168.537a.85.85,0,0,0-.85.85V36.84a.85.85,0,0,0,.85.85h18.326a.85.85,0,0,0,.85-.85V33.175A.85.85,0,0,0,186.863,32.325Zm-.85,3.665H169.388V34.026h16.625V35.99Z" transform="translate(-156.233 -28.66)"/><path d="M266.3,97.986H249.35a.85.85,0,1,0,0,1.7H266.3a.85.85,0,0,0,0-1.7Z" transform="translate(-227.884 -86.876)"/><path d="M266.3,131.658H249.35a.85.85,0,1,0,0,1.7H266.3a.85.85,0,0,0,0-1.7Z" transform="translate(-227.884 -116.73)"/><path d="M267.152,166.18a.85.85,0,0,0-.85-.85H249.35a.85.85,0,1,0,0,1.7H266.3A.85.85,0,0,0,267.152,166.18Z" transform="translate(-227.884 -146.585)"/><path d="M260.28,199.852a.85.85,0,0,0-.85-.85H249.35a.85.85,0,0,0,0,1.7h10.079A.85.85,0,0,0,260.28,199.852Z" transform="translate(-227.884 -176.439)"/><path d="M128.441,248.5H112.978a.85.85,0,1,0,0,1.7h15.462a.85.85,0,0,0,0-1.7Z" transform="translate(-106.974 -220.324)"/><path d="M129.291,283.022a.85.85,0,0,0-.85-.85H112.978a.85.85,0,0,0,0,1.7h15.462A.85.85,0,0,0,129.291,283.022Z" transform="translate(-106.974 -250.179)"/><path d="M122.419,316.694a.85.85,0,0,0-.85-.85h-8.59a.85.85,0,0,0,0,1.7h8.59A.85.85,0,0,0,122.419,316.694Z" transform="translate(-106.974 -280.033)"/></g></g></g></svg>